<?xml version="1.0" encoding="UTF-8"?>
<svg width="76" height="76" viewBox="0 0 76 76" fill="none" xmlns="http://www.w3.org/2000/svg">
		<path d="M19 34V28C19 18.6112 26.6112 11 36 11C45.3888 11 53 18.6112 53 28V34H55C58.3137 34 61 36.6863 61 40V58C61 61.3137 58.3137 64 55 64H17C13.6863 64 11 61.3137 11 58V40C11 36.6863 13.6863 34 17 34H19ZM23 34H49V28C49 21.3726 43.6274 16 37 16H35C28.3726 16 23 21.3726 23 28V34ZM36 42C34.3431 42 33 43.3431 33 45V51C33 52.6569 34.3431 54 36 54C37.6569 54 39 52.6569 39 51V45C39 43.3431 37.6569 42 36 42Z" fill="currentColor" />
	</svg>
