<svg width="99" height="32" viewBox="0 0 99 32" fill="none" xmlns="http://www.w3.org/2000/svg">
<path d="M16.4367 5.95703H21.1698L13.9614 18.6008V24.9092H9.50036V18.6008L2.29199 5.95703H7.02503L11.7309 14.5667L16.4367 5.95703Z" fill="#141414"/>
<path d="M26.915 25.207C24.8477 25.207 23.134 24.5663 21.7739 23.2847C20.4139 21.9852 19.7338 20.2975 19.7338 18.2218C19.7338 16.1641 20.4048 14.4855 21.7467 13.1859C23.1068 11.8864 24.7842 11.2366 26.779 11.2366C28.7375 11.2366 30.3605 11.8503 31.648 13.0776C32.9356 14.287 33.5793 15.8844 33.5793 17.8698C33.5793 18.2308 33.5521 18.6821 33.4977 19.2236H24.1132C24.2583 20.0719 24.5757 20.7127 25.0653 21.1459C25.5731 21.579 26.1805 21.7956 26.8878 21.7956C27.4862 21.7956 28.003 21.6512 28.4383 21.3624C28.8735 21.0556 29.1455 20.6495 29.2543 20.1441L33.0353 21.1459C32.6726 22.4815 31.9291 23.4923 30.8048 24.1782C29.6986 24.8641 28.402 25.207 26.915 25.207ZM24.2493 16.5161H29.4175C29.3087 16.0288 29.0186 15.6046 28.5471 15.2436C28.0937 14.8646 27.5134 14.675 26.8062 14.675C25.5368 14.675 24.6845 15.2887 24.2493 16.5161Z" fill="#141414"/>
<path d="M48.042 21.4437C48.187 21.4437 48.3956 21.3985 48.6676 21.3083V24.9634C48.2868 25.1078 47.7518 25.18 47.0627 25.18C45.3218 25.18 44.1431 24.6926 43.5265 23.7179C42.5836 24.6926 41.2326 25.18 39.4735 25.18C38.0953 25.18 36.971 24.819 36.1006 24.097C35.2482 23.375 34.8221 22.3823 34.8221 21.1188C34.8221 19.9455 35.212 18.9979 35.9917 18.2759C36.7715 17.554 37.8233 17.1298 39.1471 17.0034L43.0369 16.6515V16.3807C43.0369 15.8573 42.8556 15.4421 42.4929 15.1353C42.1302 14.8104 41.6678 14.648 41.1056 14.648C40.0901 14.648 39.4826 15.1353 39.2831 16.11L35.3933 15.5685C35.6291 14.0523 36.3 12.9513 37.4062 12.2654C38.5305 11.5795 39.8725 11.2366 41.432 11.2366C43.2817 11.2366 44.7325 11.6788 45.7843 12.5632C46.8542 13.4296 47.3891 14.666 47.3891 16.2724V20.7127C47.3891 21.2 47.6067 21.4437 48.042 21.4437ZM43.0369 19.6568V19.3589L40.48 19.6568C40.0448 19.7109 39.7002 19.8553 39.4463 20.0899C39.1924 20.3065 39.0655 20.5683 39.0655 20.8751C39.0655 21.2361 39.2196 21.5159 39.5279 21.7144C39.8543 21.913 40.2624 22.0032 40.752 21.9852C41.4048 21.9491 41.9489 21.7325 42.3841 21.3354C42.8193 20.9383 43.0369 20.3787 43.0369 19.6568Z" fill="#141414"/>
<path d="M58.4548 11.2366C59.9781 11.2366 61.2203 11.6788 62.1814 12.5632C63.1606 13.4477 63.6503 14.6841 63.6503 16.2724V24.9092H59.298V17.5991C59.298 16.7868 59.0986 16.1822 58.6996 15.7851C58.3006 15.3699 57.7566 15.1624 57.0675 15.1624C56.3784 15.1624 55.8253 15.379 55.4082 15.8122C55.0093 16.2454 54.8098 16.8771 54.8098 17.7074V24.9092H50.4576V5.95703H54.8098V12.6174C55.6984 11.6968 56.9134 11.2366 58.4548 11.2366Z" fill="#141414"/>
<path d="M74.9422 11.5073H79.2944V24.9092H74.9422V23.7992C74.0536 24.7197 72.8387 25.18 71.2972 25.18C69.8465 25.18 68.6134 24.7197 67.5979 23.7992C66.6005 22.8606 66.1018 21.552 66.1018 19.8733V11.5073H70.454V18.9257C70.454 19.7019 70.6535 20.2885 71.0524 20.6856C71.4514 21.0646 71.9954 21.2541 72.6845 21.2541C73.3736 21.2541 73.9176 21.0376 74.3166 20.6044C74.7337 20.1712 74.9422 19.5394 74.9422 18.7091V11.5073Z" fill="#141414"/>
<path d="M90.0715 11.2366C91.9212 11.2366 93.4898 11.8954 94.7774 13.213C96.0649 14.5126 96.7087 16.1822 96.7087 18.2218C96.7087 20.2253 96.074 21.8859 94.8046 23.2035C93.5352 24.5211 91.9665 25.18 90.0987 25.18C88.5029 25.18 87.1972 24.6926 86.1817 23.7179V24.9092H81.8295V5.95703H86.1817V12.6715C87.1791 11.7149 88.4757 11.2366 90.0715 11.2366ZM89.2011 21.4166C90.0352 21.4166 90.7425 21.1278 91.3228 20.5502C91.9031 19.9546 92.1932 19.1784 92.1932 18.2218C92.1932 17.2471 91.9031 16.471 91.3228 15.8934C90.7606 15.2977 90.0534 14.9999 89.2011 14.9999C88.3306 14.9999 87.6053 15.2977 87.025 15.8934C86.4628 16.471 86.1817 17.2471 86.1817 18.2218C86.1817 19.1784 86.4628 19.9546 87.025 20.5502C87.6053 21.1278 88.3306 21.4166 89.2011 21.4166Z" fill="#141414"/>
</svg>
