<?xml version="1.0" encoding="UTF-8"?>
<svg
		width="20"
		height="20"
		viewBox="0 0 20 20"
		fill="none"
		xmlns="http://www.w3.org/2000/svg"
	
	>
		<path
			d="M10.0469 1.04297C11.9704 1.04296 13.4781 1.04307 14.6543 1.20117C15.8582 1.36304 16.809 1.70061 17.5547 2.44629C18.3002 3.19187 18.6379 4.14199 18.7998 5.3457C18.9579 6.52187 18.958 8.02964 18.958 9.95312V10.0488C18.958 11.9723 18.9579 13.4801 18.7998 14.6562C18.6379 15.8602 18.3004 16.811 17.5547 17.5566C16.809 18.3023 15.8582 18.6399 14.6543 18.8018C13.4781 18.9599 11.9704 18.96 10.0469 18.96H9.95117C8.02768 18.96 6.51992 18.9599 5.34375 18.8018C4.14004 18.6399 3.18992 18.3021 2.44434 17.5566C1.69866 16.811 1.36109 15.8602 1.19922 14.6562C1.04112 13.4801 1.04101 11.9723 1.04102 10.0488V9.95312C1.04101 8.02965 1.04109 6.52187 1.19922 5.3457C1.3611 4.14193 1.69874 3.19189 2.44434 2.44629C3.18994 1.70069 4.13997 1.36306 5.34375 1.20117C6.51991 1.04304 8.02769 1.04296 9.95117 1.04297H10.0469ZM9.99902 2.29297C8.01735 2.29297 6.594 2.29479 5.51074 2.44043C4.44541 2.58366 3.80284 2.85536 3.32812 3.33008C2.85341 3.80479 2.58171 4.44736 2.43848 5.5127C2.29284 6.59595 2.29102 8.0193 2.29102 10.001C2.29102 11.9828 2.29283 13.4069 2.43848 14.4902C2.58169 15.5551 2.85366 16.1972 3.32812 16.6719C3.80284 17.1466 4.44541 17.4193 5.51074 17.5625C6.59399 17.7081 8.01737 17.71 9.99902 17.71C11.9809 17.71 13.405 17.7081 14.4883 17.5625C15.5535 17.4193 16.1952 17.1465 16.6699 16.6719C17.1446 16.1972 17.4173 15.5554 17.5605 14.4902C17.7062 13.4069 17.708 11.9828 17.708 10.001C17.708 8.01933 17.7062 6.59594 17.5605 5.5127C17.4173 4.44736 17.1446 3.80479 16.6699 3.33008C16.1953 2.85561 15.5532 2.58364 14.4883 2.44043C13.405 2.29478 11.9809 2.29297 9.99902 2.29297ZM9.99902 12.501C10.4593 12.501 10.833 12.8747 10.833 13.335C10.8328 13.795 10.4592 14.168 9.99902 14.168C9.53904 14.1678 9.16619 13.7949 9.16602 13.335C9.16602 12.8748 9.53894 12.5012 9.99902 12.501ZM9.99902 5.20996C11.2071 5.20996 12.1865 6.18934 12.1865 7.39746C12.1864 8.20011 11.7542 8.90148 11.1123 9.28125C10.9484 9.37825 10.8128 9.48398 10.7246 9.58789C10.6391 9.68869 10.624 9.75432 10.624 9.79297V10.835C10.6238 11.18 10.3441 11.46 9.99902 11.46C9.6541 11.4598 9.3742 11.1799 9.37402 10.835V9.79297C9.37402 9.37156 9.55899 9.02979 9.77148 8.7793C9.9815 8.53182 10.2434 8.34242 10.4756 8.20508C10.753 8.04097 10.9364 7.74029 10.9365 7.39746C10.9365 6.87969 10.5168 6.45996 9.99902 6.45996C9.48141 6.46014 9.06152 6.8798 9.06152 7.39746C9.06135 7.74249 8.78159 8.02246 8.43652 8.02246C8.0916 8.02229 7.8117 7.74238 7.81152 7.39746C7.81152 6.18945 8.79105 5.21014 9.99902 5.20996Z"
			fill="currentColor"
		/>
	</svg>
