<?xml version="1.0" encoding="UTF-8"?>
<svg
		width="30"
		height="30"
		viewBox="0 0 30 30"
		fill="none"
		xmlns="http://www.w3.org/2000/svg"
	
	>
		<path
			fill-rule="evenodd"
			clip-rule="evenodd"
			d="M24.8968 3.93838V1.02749C24.8968 0.873087 24.9581 0.725008 25.0673 0.615829C25.1765 0.506649 25.3246 0.445313 25.479 0.445312C25.6334 0.445313 25.7815 0.506649 25.8906 0.615829C25.9998 0.725008 26.0612 0.873087 26.0612 1.02749V3.93838H28.972C29.1264 3.93838 29.2745 3.99972 29.3837 4.1089C29.4929 4.21808 29.5542 4.36616 29.5542 4.52056C29.5542 4.67496 29.4929 4.82304 29.3837 4.93222C29.2745 5.0414 29.1264 5.10274 28.972 5.10274H26.0612V24.8968H28.972C29.1264 24.8968 29.2745 24.9581 29.3837 25.0673C29.4929 25.1765 29.5542 25.3246 29.5542 25.479C29.5542 25.6334 29.4929 25.7815 29.3837 25.8906C29.2745 25.9998 29.1264 26.0612 28.972 26.0612H26.0612V28.972C26.0612 29.2931 25.8004 29.5542 25.479 29.5542C25.1576 29.5542 24.8968 29.2931 24.8968 28.972V26.0612H5.10274V28.972C5.10274 29.2931 4.84195 29.5542 4.52056 29.5542C4.19917 29.5542 3.93838 29.2931 3.93838 28.972V26.0612H1.02749C0.873087 26.0612 0.725008 25.9998 0.615829 25.8906C0.506649 25.7815 0.445313 25.6334 0.445312 25.479C0.445312 25.3246 0.506649 25.1765 0.615829 25.0673C0.725008 24.9581 0.873087 24.8968 1.02749 24.8968H3.93838V5.10274H1.02749C0.873087 5.10274 0.725008 5.0414 0.615829 4.93222C0.506649 4.82304 0.445313 4.67496 0.445312 4.52056C0.445313 4.36616 0.506649 4.21808 0.615829 4.1089C0.725008 3.99972 0.873087 3.93838 1.02749 3.93838H3.93838V1.02749C3.93838 0.873087 3.99972 0.725008 4.1089 0.615829C4.21808 0.506649 4.36616 0.445313 4.52056 0.445312C4.67496 0.445313 4.82304 0.506649 4.93222 0.615829C5.0414 0.725008 5.10274 0.873087 5.10274 1.02749V3.93838H24.8968ZM5.10274 5.10274V24.8968H24.8968V5.10274H5.10274ZM23.2625 11.1642V18.9039C23.2625 19.1202 23.2023 19.3321 23.0886 19.516C22.9749 19.7 22.8123 19.8486 22.6189 19.9453L15.5819 23.4639V15.0045L23.2625 11.1642ZM14.4176 14.9906V23.4639L7.38066 19.9453C7.18726 19.8486 7.0246 19.7 6.91091 19.516C6.79723 19.3321 6.73701 19.1202 6.737 18.9039V11.1503L14.4176 14.9906ZM7.2663 10.1196C7.30284 10.0958 7.34115 10.0741 7.38066 10.0542L14.4791 6.50472C14.6408 6.424 14.819 6.38198 14.9998 6.38198C15.1805 6.38198 15.3588 6.424 15.5205 6.50472L22.6189 10.0542C22.6628 10.0762 22.705 10.1009 22.7454 10.1276L15.0137 13.9934L7.2663 10.1196Z"
			fill="currentColor"
		/>
	</svg>
